<?xml version='1.0' encoding='UTF-8'?>
<svg xmlns="http://www.w3.org/2000/svg" font-family="ConsolasFallback,Consolas,monospace" width="639px" height="920px" font-size="16px" viewBox="385 0 639 920">
<style>
@font-face {
src: local('Consolas'), local('Consolas Bold');
font-family: 'ConsolasFallback';
font-display: swap;
-webkit-size-adjust: 109%;
size-adjust: 109%;
}
.key {fill: #ffa657;}
.value {fill: #a5d6ff;}
.addColor {fill: #3fb950;}
.delColor {fill: #f85149;}
.cc {fill: #616e7f;}
text, tspan {white-space: pre;}
</style>
<rect width="1024px" height="920px" fill="#161b22" rx="15"/>
<text x="390" y="30" fill="#c9d1d9">
<tspan x="390" y="30">antti_parviainen</tspan> -————————————————————————— <tspan class="cc" id="last_updated">2026-04-28 07:32 UTC</tspan>
<tspan x="390" y="50" class="cc">. </tspan><tspan class="key">OS</tspan>:<tspan class="cc"> ............................... </tspan><tspan class="value">Linux (Ubuntu 24.04.2 LTS)</tspan>
<tspan x="390" y="70" class="cc">. </tspan><tspan class="key">Uptime</tspan>:<tspan class="cc" id="age_data_dots"> .......................... </tspan><tspan class="value" id="age_data">40 years, 2 months, 23 days</tspan>
<tspan x="390" y="90" class="cc">. </tspan><tspan class="key">Host</tspan>:<tspan class="cc"> ....... </tspan><tspan class="value">Member of Technical Staff @ Nakatomi Corporation</tspan>
<tspan x="390" y="110" class="cc">. </tspan><tspan class="key">Kernel</tspan>:<tspan class="cc"> .................................. </tspan><tspan class="value">University of Turku</tspan>
<tspan x="390" y="130" class="cc">. </tspan><tspan class="key">IDE</tspan>:<tspan class="cc"> ............................. </tspan><tspan class="value">Claude Code, Cursor, VSCode</tspan>
<tspan x="390" y="150" class="cc">. </tspan>
<tspan x="390" y="170" class="cc">. </tspan><tspan class="key">Languages</tspan>.<tspan class="key">Programming</tspan>:<tspan class="cc"> ..... </tspan><tspan class="value">Python, TypeScript, Svelte, React</tspan>
<tspan x="390" y="190" class="cc">. </tspan><tspan class="key">Languages</tspan>.<tspan class="key">Computer</tspan>:<tspan class="cc"> ..... </tspan><tspan class="value">Celonis, Qlik, PowerBI, N8N, Alteryx</tspan>
<tspan x="390" y="210" class="cc">. </tspan><tspan class="key">Languages</tspan>.<tspan class="key">Real</tspan>:<tspan class="cc"> ............ </tspan><tspan class="value">Finnish, English, Swedish, German</tspan>
<tspan x="390" y="230" class="cc">. </tspan>
<tspan x="390" y="250" class="cc">. </tspan><tspan class="key">Hobbies</tspan>.<tspan class="key">Software</tspan>:<tspan class="cc"> ................ </tspan><tspan class="value">Agentic workflow automation</tspan>
<tspan x="390" y="270" class="cc">. </tspan><tspan class="key">Hobbies</tspan>.<tspan class="key">Hardware</tspan>:<tspan class="cc"> ...................... </tspan><tspan class="value">Raspberry Pi Projects</tspan>
<tspan x="390" y="290" class="cc">. </tspan><tspan class="key">Hobbies</tspan>.<tspan class="key">Others</tspan>:<tspan class="cc"> ............ </tspan><tspan class="value">DIY &amp; Home Projects, Cottage Life</tspan>
<tspan x="390" y="310" class="cc">. </tspan>
<tspan x="390" y="330" class="cc">. </tspan><tspan class="key">Mission</tspan>.<tspan class="key">Rule1</tspan>:<tspan class="cc"> .................. </tspan><tspan class="value">Build strategic AI solutions</tspan>
<tspan x="390" y="350" class="cc">. </tspan><tspan class="key">Mission</tspan>.<tspan class="key">Rule2</tspan>:<tspan class="cc"> ................. </tspan><tspan class="value">Help today's category leaders</tspan>
<tspan x="390" y="370" class="cc">. </tspan><tspan class="value">                                 stay ahead also tomorrow</tspan>
<tspan x="390" y="390" class="cc">. </tspan><tspan class="key">Mission</tspan>.<tspan class="key">Rule3</tspan>:<tspan class="cc"> ............ </tspan><tspan class="value">Boost personal productivity by 50x</tspan>
<tspan x="390" y="410" class="cc">. </tspan><tspan class="key">Slogan</tspan>:<tspan class="cc"> ..................................... </tspan><tspan class="value">"I still got it"</tspan>
<tspan x="390" y="440">- Contact</tspan> -——————————————————————————————————————————————————-—-
<tspan x="390" y="470" class="cc">. </tspan><tspan class="key">Email</tspan>:<tspan class="cc"> .................................. </tspan><a href="mailto:antti@andyparfei.dev"><tspan class="value link">antti@andyparfei.dev</tspan></a>
<tspan x="390" y="490" class="cc">. </tspan><tspan class="key">LinkedIn</tspan>:<tspan class="cc"> ................... </tspan><a href="https://linkedin.com/in/antti-parviainen"><tspan class="value link">linkedin.com/in/antti-parviainen</tspan></a>
<tspan x="390" y="530">- GitHub Today</tspan> -—————————————————————————————————————————————-—-
<tspan x="408" y="550"><tspan class="key">Commits</tspan>:<tspan class="cc" id="today_commits_dots"> ................................................... </tspan><tspan class="value" id="today_commits">0</tspan></tspan>
<tspan x="408" y="570"><tspan class="key">PRs</tspan>:<tspan class="cc" id="today_prs_dots"> ....................................................... </tspan><tspan class="value" id="today_prs">0</tspan></tspan>
<tspan x="408" y="590"><tspan class="key">Issues</tspan>:<tspan class="cc" id="today_issues_dots"> .................................................... </tspan><tspan class="value" id="today_issues">0</tspan></tspan>
<tspan x="408" y="610"><tspan class="key">Reviews</tspan>:<tspan class="cc" id="today_reviews_dots"> ................................................... </tspan><tspan class="value" id="today_reviews">0</tspan></tspan>
<tspan x="390" y="650">- GitHub All Time</tspan> -——————————————————————————————————————————-—-
<tspan x="408" y="670"><tspan class="key">Repos</tspan>:<tspan class="cc" id="repo_data_dots"> ................................... </tspan><tspan class="value" id="repo_data">10</tspan> {<tspan class="key">Contributed</tspan>: <tspan class="value" id="contrib_data">10</tspan>}</tspan>
<tspan x="408" y="690"><tspan class="key">Stars</tspan>:<tspan class="cc" id="star_data_dots"> ..................................................... </tspan><tspan class="value" id="star_data">0</tspan></tspan>
<tspan x="408" y="710"><tspan class="key">Commits</tspan>:<tspan class="cc" id="commit_data_dots"> ................................................... </tspan><tspan class="value" id="commit_data">3</tspan></tspan>
<tspan x="408" y="730"><tspan class="key">Followers</tspan>:<tspan class="cc" id="follower_data_dots"> ................................................. </tspan><tspan class="value" id="follower_data">0</tspan></tspan>
<tspan x="408" y="750"><tspan class="key">GitHub LOC</tspan>:<tspan class="cc" id="loc_data_dots"> .......................... </tspan><tspan class="value" id="loc_data">3,830</tspan> ( <tspan class="addColor">+</tspan><tspan class="addColor" id="loc_add">4.3K</tspan>, <tspan id="loc_del_dots">. </tspan><tspan class="delColor">-</tspan><tspan class="delColor" id="loc_del">516</tspan> )</tspan>
<tspan x="408" y="770"><tspan class="key">Languages</tspan>:</tspan>
</text>
<g id="generated-icons"><g transform="translate(393, 538)"><path d="M11.93 8.5a4.002 4.002 0 0 1-7.86 0H.75a.75.75 0 0 1 0-1.5h3.32a4.002 4.002 0 0 1 7.86 0h3.32a.75.75 0 0 1 0 1.5Zm-1.43-.25a2.5 2.5 0 1 0-5 0 2.5 2.5 0 0 0 5 0Z" fill="#ffa657" transform="scale(0.875)"/></g><g transform="translate(393, 558)"><path d="M1.5 3.25a2.25 2.25 0 1 1 3 2.122v5.256a2.251 2.251 0 1 1-1.5 0V5.372A2.25 2.25 0 0 1 1.5 3.25Zm5.677-.177L9.573.677A.25.25 0 0 1 10 .854V2.5h1A2.5 2.5 0 0 1 13.5 5v5.628a2.251 2.251 0 1 1-1.5 0V5a1 1 0 0 0-1-1h-1v1.646a.25.25 0 0 1-.427.177L7.177 3.427a.25.25 0 0 1 0-.354ZM3.75 2.5a.75.75 0 1 0 0 1.5.75.75 0 0 0 0-1.5Zm0 9.5a.75.75 0 1 0 0 1.5.75.75 0 0 0 0-1.5Zm8.25.75a.75.75 0 1 0 1.5 0 .75.75 0 0 0-1.5 0Z" fill="#ffa657" transform="scale(0.875)"/></g><g transform="translate(393, 578)"><path d="M8 9.5a1.5 1.5 0 1 0 0-3 1.5 1.5 0 0 0 0 3ZM8 0a8 8 0 1 1 0 16A8 8 0 0 1 8 0ZM1.5 8a6.5 6.5 0 1 0 13 0 6.5 6.5 0 0 0-13 0Z" fill="#ffa657" transform="scale(0.875)"/></g><g transform="translate(393, 598)"><path d="M8 2c1.981 0 3.671.992 4.933 2.078 1.27 1.091 2.187 2.345 2.637 3.023a1.62 1.62 0 0 1 0 1.798c-.45.678-1.367 1.932-2.637 3.023C11.671 13.008 9.981 14 8 14s-3.671-.992-4.933-2.078C1.797 10.831.88 9.577.43 8.899a1.62 1.62 0 0 1 0-1.798c.45-.678 1.367-1.932 2.637-3.023C4.329 2.992 6.019 2 8 2ZM1.679 7.932a.12.12 0 0 0 0 .136c.411.622 1.241 1.75 2.366 2.717C5.176 11.758 6.527 12.5 8 12.5s2.825-.742 3.955-1.715c1.124-.967 1.954-2.096 2.366-2.717a.12.12 0 0 0 0-.136c-.412-.621-1.242-1.75-2.366-2.717C10.824 4.242 9.473 3.5 8 3.5s-2.824.742-3.955 1.715c-1.124.967-1.954 2.096-2.366 2.717ZM8 10a2 2 0 1 1-.001-3.999A2 2 0 0 1 8 10Z" fill="#ffa657" transform="scale(0.875)"/></g><g transform="translate(393, 658)"><path d="M2 2.5A2.5 2.5 0 0 1 4.5 0h8.75a.75.75 0 0 1 .75.75v12.5a.75.75 0 0 1-.75.75h-2.5a.75.75 0 0 1 0-1.5h1.75v-2h-8a1 1 0 0 0-.714 1.7.75.75 0 1 1-1.072 1.05A2.495 2.495 0 0 1 2 11.5Zm10.5-1h-8a1 1 0 0 0-1 1v6.708A2.486 2.486 0 0 1 4.5 9h8Z" fill="#ffa657" transform="scale(0.875)"/></g><g transform="translate(393, 678)"><path d="M8 .25a.75.75 0 0 1 .673.418l1.882 3.815 4.21.612a.75.75 0 0 1 .416 1.279l-3.046 2.97.719 4.192a.751.751 0 0 1-1.088.791L8 12.347l-3.766 1.98a.75.75 0 0 1-1.088-.79l.72-4.194L.818 6.374a.75.75 0 0 1 .416-1.28l4.21-.611L7.327.668A.75.75 0 0 1 8 .25Z" fill="#ffa657" transform="scale(0.875)"/></g><g transform="translate(393, 698)"><path d="M11.93 8.5a4.002 4.002 0 0 1-7.86 0H.75a.75.75 0 0 1 0-1.5h3.32a4.002 4.002 0 0 1 7.86 0h3.32a.75.75 0 0 1 0 1.5Zm-1.43-.25a2.5 2.5 0 1 0-5 0 2.5 2.5 0 0 0 5 0Z" fill="#ffa657" transform="scale(0.875)"/></g><g transform="translate(393, 718)"><path d="M10.561 8.073a6.005 6.005 0 0 1 3.432 5.142.75.75 0 1 1-1.498.07 4.5 4.5 0 0 0-8.99 0 .75.75 0 0 1-1.498-.07 6.004 6.004 0 0 1 3.431-5.142 3.999 3.999 0 1 1 5.123 0ZM10.5 5a2.5 2.5 0 1 0-5 0 2.5 2.5 0 0 0 5 0Z" fill="#ffa657" transform="scale(0.875)"/></g><g transform="translate(393, 738)"><path d="m11.28 3.22 4.25 4.25a.75.75 0 0 1 0 1.06l-4.25 4.25a.749.749 0 0 1-1.275-.326.749.749 0 0 1 .215-.734L13.94 8l-3.72-3.72a.749.749 0 0 1 .326-1.275.749.749 0 0 1 .734.215Zm-6.56 0a.751.751 0 0 1 .018 1.042L1.06 8l3.72 3.72a.749.749 0 0 1-.326 1.275.749.749 0 0 1-.734-.215l-4.25-4.25a.75.75 0 0 1 0-1.06l4.25-4.25Z" fill="#ffa657" transform="scale(0.875)"/></g><g transform="translate(393, 758)"><path d="m11.28 3.22 4.25 4.25a.75.75 0 0 1 0 1.06l-4.25 4.25a.749.749 0 0 1-1.275-.326.749.749 0 0 1 .215-.734L13.94 8l-3.72-3.72a.749.749 0 0 1 .326-1.275.749.749 0 0 1 .734.215Zm-6.56 0a.751.751 0 0 1 .018 1.042L1.06 8l3.72 3.72a.749.749 0 0 1-.326 1.275.749.749 0 0 1-.734-.215l-4.25-4.25a.75.75 0 0 1 0-1.06l4.25-4.25Z" fill="#ffa657" transform="scale(0.875)"/></g></g><g id="generated-lang-lines"><text x="408" y="790" fill="#c9d1d9" font-family="ConsolasFallback,Consolas,monospace" font-size="16px"><tspan class="key">TypeScript</tspan>:<tspan class="cc"> ................................. </tspan><tspan class="value">1.8K LOC (46.0%)</tspan></text><text x="408" y="810" fill="#c9d1d9" font-family="ConsolasFallback,Consolas,monospace" font-size="16px"><tspan class="key">Rust</tspan>:<tspan class="cc"> ....................................... </tspan><tspan class="value">1.1K LOC (30.0%)</tspan></text><text x="408" y="830" fill="#c9d1d9" font-family="ConsolasFallback,Consolas,monospace" font-size="16px"><tspan class="key">Svelte</tspan>:<tspan class="cc"> ...................................... </tspan><tspan class="value">516 LOC (13.5%)</tspan></text><text x="408" y="850" fill="#c9d1d9" font-family="ConsolasFallback,Consolas,monospace" font-size="16px"><tspan class="key">Python</tspan>:<tspan class="cc"> ....................................... </tspan><tspan class="value">212 LOC (5.5%)</tspan></text><text x="408" y="870" fill="#c9d1d9" font-family="ConsolasFallback,Consolas,monospace" font-size="16px"><tspan class="key">JavaScript</tspan>:<tspan class="cc"> .................................... </tspan><tspan class="value">97 LOC (2.5%)</tspan></text><text x="408" y="890" fill="#c9d1d9" font-family="ConsolasFallback,Consolas,monospace" font-size="16px"><tspan class="key">Other</tspan>:<tspan class="cc"> ......................................... </tspan><tspan class="value">96 LOC (2.5%)</tspan></text></g></svg>